<svg width="41" height="41" viewBox="0 0 41 41" fill="none" xmlns="http://www.w3.org/2000/svg">
<path d="M20.7522 0.470705C9.70096 0.466115 0.75 9.65592 0.75 20.9986C0.75 29.9681 6.34937 37.5926 14.1474 40.3927C15.1975 40.6635 15.0367 39.8969 15.0367 39.3736V35.8161C8.97255 36.546 8.72676 32.4239 8.3201 31.7353C7.49785 30.294 5.55393 29.9268 6.13487 29.2382C7.51572 28.5083 8.92339 29.4218 10.5545 31.896C11.7342 33.6908 14.0357 33.3878 15.202 33.0895C15.4567 32.0108 16.0019 31.0468 16.7527 30.2986C10.4696 29.1418 7.85088 25.2033 7.85088 20.5212C7.85088 18.249 8.57929 16.1604 10.0093 14.4758C9.09767 11.6986 10.0942 9.32083 10.2283 8.96738C12.8246 8.72868 15.5238 10.8769 15.7338 11.0468C17.2085 10.6383 18.8932 10.4225 20.779 10.4225C22.6738 10.4225 24.363 10.6474 25.8511 11.0606C26.3561 10.6658 28.8586 8.82049 31.2717 9.04541C31.4013 9.39887 32.3755 11.7216 31.5175 14.462C32.9654 16.1512 33.7027 18.2582 33.7027 20.535C33.7027 25.2263 31.0662 29.1693 24.7652 30.3077C25.3049 30.8529 25.7334 31.5031 26.0257 32.2203C26.3181 32.9375 26.4684 33.7074 26.4678 34.4849V39.649C26.5035 40.0622 26.4678 40.4707 27.1381 40.4707C35.0523 37.7303 40.75 30.0507 40.75 21.0032C40.75 9.65592 31.7946 0.470705 20.7522 0.470705V0.470705Z" fill="#343434"/>
</svg>
