<svg width="55" height="52" viewBox="0 0 55 52" fill="none" xmlns="http://www.w3.org/2000/svg">
<g clip-path="url(#clip0_22_303)">
<path fill-rule="evenodd" clip-rule="evenodd" d="M28.8153 9.40905L28.9195 4.32887C28.9598 2.36365 27.4991 0.733374 25.662 0.69571L10.7027 0.389019C8.8593 0.351227 7.33932 1.9204 7.29903 3.88561L7.19488 8.9658C7.15446 10.9373 8.61204 12.5644 10.4523 12.6021L25.4116 12.9088C27.2519 12.9465 28.7749 11.3805 28.8153 9.40905Z" fill="#545454"/>
<path fill-rule="evenodd" clip-rule="evenodd" d="M25.2956 37.7742L25.0606 47.5621C25.0606 47.5621 25.6327 50.4525 27.7323 50.4956C30.0661 50.5434 31.2138 49.448 31.2551 47.4359L31.503 35.3447C31.6522 28.0681 33.9871 29.2849 33.9871 29.2849L39.898 31.8598C43.591 31.9355 44.0957 31.1019 44.1351 29.1804C42.9554 25.8899 31.8114 19.9978 31.8114 19.9978C28.2929 18.8817 26.635 16.3503 26.635 16.3503L10.1612 15.8188L10.1872 17.4509C10.0872 22.3248 6.92604 22.8383 6.88479 24.8504L6.64311 36.6385C6.60193 38.6475 8.15989 40.7142 10.1376 40.7548L12.6308 40.8059L12.6949 37.6815L16.0098 37.7495L15.9204 42.1111C15.9172 42.3716 15.9739 42.6295 16.0862 42.8646C16.379 43.5239 18.0154 44.0513 18.8184 44.0678C19.8525 44.089 21.9121 43.3373 22.0131 42.3766L22.1366 37.8751L25.2956 37.7742Z" fill="#545454"/>
</g>
<defs>
<clipPath id="clip0_22_303">
<rect width="53.13" height="50" fill="white" transform="translate(53.1187 51.0786) rotate(-178.826)"/>
</clipPath>
</defs>
</svg>
