<svg width="40" height="40" viewBox="0 0 40 40" fill="none" xmlns="http://www.w3.org/2000/svg">
<path fill-rule="evenodd" clip-rule="evenodd" d="M0.708313 4.05014C0.708313 3.16383 1.0604 2.31383 1.68711 1.68711C2.31382 1.0604 3.16383 0.708317 4.05013 0.708317H37.3629C37.8021 0.7076 38.2371 0.793523 38.6431 0.961166C39.0491 1.12881 39.418 1.37488 39.7288 1.68529C40.0395 1.9957 40.286 2.36436 40.4541 2.77015C40.6222 3.17595 40.7085 3.61091 40.7083 4.05014V37.3629C40.7088 37.8022 40.6226 38.2373 40.4548 38.6433C40.287 39.0492 40.0407 39.4181 39.7302 39.7289C39.4196 40.0396 39.0508 40.286 38.6449 40.4541C38.239 40.6222 37.804 40.7086 37.3647 40.7083H4.05013C3.61112 40.7083 3.17642 40.6218 2.77085 40.4538C2.36529 40.2857 1.99681 40.0394 1.68647 39.7289C1.37613 39.4184 1.13001 39.0498 0.962172 38.6441C0.794337 38.2384 0.708075 37.8037 0.708313 37.3647V4.05014ZM16.541 15.9592H21.9574V18.6792C22.7392 17.1156 24.7392 15.7083 27.7447 15.7083C33.5065 15.7083 34.8719 18.8229 34.8719 24.5374V35.1229H29.041V25.8392C29.041 22.5847 28.2592 20.7483 26.2738 20.7483C23.5192 20.7483 22.3738 22.7283 22.3738 25.8392V35.1229H16.541V15.9592ZM6.54104 34.8738H12.3738V15.7083H6.54104V34.872V34.8738ZM13.2083 9.45741C13.2193 9.95681 13.1304 10.4534 12.9469 10.918C12.7634 11.3826 12.489 11.8058 12.1396 12.1629C11.7903 12.52 11.3732 12.8037 10.9128 12.9974C10.4523 13.1911 9.95784 13.2909 9.45831 13.2909C8.95879 13.2909 8.46429 13.1911 8.00385 12.9974C7.54341 12.8037 7.12629 12.52 6.77698 12.1629C6.42767 11.8058 6.15321 11.3826 5.9697 10.918C5.78618 10.4534 5.69732 9.95681 5.70831 9.45741C5.7299 8.47714 6.13447 7.5443 6.83538 6.85866C7.53629 6.17301 8.47781 5.78908 9.45831 5.78908C10.4388 5.78908 11.3803 6.17301 12.0812 6.85866C12.7822 7.5443 13.1867 8.47714 13.2083 9.45741V9.45741Z" fill="#343434"/>
</svg>
