<svg width="235" height="66" viewBox="0 0 235 66" fill="none" xmlns="http://www.w3.org/2000/svg">
<path d="M9.118 61.958V0.293994H20.21L58.374 49.362V0.293994H69.466V61.958H78.584V66H57.434L20.21 18.06V66H0V61.958H9.118ZM157.444 61.958V66H136.482L129.902 51.054H97.0021L90.4221 66H69.4601V61.958H80.3641L107.53 0.293994H119.374L146.54 61.958H157.444ZM125.39 40.808L113.452 13.736L101.514 40.808H125.39ZM205.12 61.958V66H148.344V61.958H157.462V0.293994H201.266L201.172 10.634H168.554V28.682H197.694V38.928H168.554V61.958H205.12ZM214.192 61.958V0.293994H225.284V61.958H234.402V66H205.074V61.958H214.192Z" fill="white"/>
</svg>
