<svg width="93" height="68" viewBox="0 0 93 68" fill="none" xmlns="http://www.w3.org/2000/svg">
<path d="M26.072 67.128C23.9413 67.128 21.9987 66.5327 20.244 65.342C18.552 64.0887 17.2987 62.334 16.484 60.078L0.88 18.06H10.374L24.286 56.882C24.7247 58.01 25.3513 58.574 26.166 58.574C26.918 58.574 27.5447 58.01 28.046 56.882L42.052 18.06H51.358L35.754 60.078C34.8767 62.334 33.592 64.0887 31.9 65.342C30.208 66.5327 28.2653 67.128 26.072 67.128ZM58.328 66V58.01H71.676V8.19H58.986V0.199996H80.794V58.01H92.638V66H58.328Z" fill="white"/>
</svg>
