<svg width="31" height="25" viewBox="0 0 31 25" fill="none" xmlns="http://www.w3.org/2000/svg">
<path d="M20.6206 1.15551C20.6605 1.04342 20.6744 0.925634 20.6616 0.808883C20.6489 0.692133 20.6096 0.578702 20.5461 0.475066C20.4826 0.371431 20.3961 0.279621 20.2915 0.204878C20.1869 0.130135 20.0663 0.0739228 19.9366 0.0394513C19.8069 0.00497972 19.6706 -0.00707623 19.5355 0.00397164C19.4004 0.0150195 19.2691 0.0489549 19.1492 0.10384C19.0293 0.158726 18.923 0.233486 18.8365 0.323853C18.75 0.41422 18.685 0.518424 18.6451 0.630515L10.3794 23.8445C10.2988 24.0709 10.3257 24.3156 10.4539 24.5249C10.5822 24.7342 10.8014 24.8909 11.0634 24.9605C11.3254 25.0302 11.6086 25.007 11.8508 24.8962C12.093 24.7853 12.2743 24.5959 12.3549 24.3695L20.6206 1.15551ZM8.99904 5.61795C9.09526 5.70089 9.1716 5.79941 9.22369 5.90788C9.27577 6.01636 9.30259 6.13264 9.30259 6.25008C9.30259 6.36752 9.27577 6.48381 9.22369 6.59228C9.1716 6.70075 9.09526 6.79928 8.99904 6.88222L2.49602 12.5L8.99904 18.1178C9.19305 18.2854 9.30204 18.5128 9.30204 18.7499C9.30204 18.987 9.19305 19.2144 8.99904 19.3821C8.80503 19.5497 8.5419 19.6439 8.26753 19.6439C7.99316 19.6439 7.73003 19.5497 7.53602 19.3821L0.303544 13.1321C0.207325 13.0492 0.130986 12.9507 0.0788985 12.8422C0.0268114 12.7337 0 12.6174 0 12.5C0 12.3826 0.0268114 12.2663 0.0788985 12.1578C0.130986 12.0493 0.207325 11.9508 0.303544 11.8679L7.53602 5.61795C7.63199 5.5348 7.74601 5.46883 7.87153 5.42382C7.99706 5.37881 8.13163 5.35564 8.26753 5.35564C8.40343 5.35564 8.538 5.37881 8.66352 5.42382C8.78905 5.46883 8.90307 5.5348 8.99904 5.61795ZM22.001 5.61795C21.9047 5.70089 21.8284 5.79941 21.7763 5.90788C21.7242 6.01636 21.6974 6.13264 21.6974 6.25008C21.6974 6.36752 21.7242 6.48381 21.7763 6.59228C21.8284 6.70075 21.9047 6.79928 22.001 6.88222L28.504 12.5L22.001 18.1178C21.9049 18.2008 21.8287 18.2993 21.7767 18.4078C21.7247 18.5163 21.698 18.6325 21.698 18.7499C21.698 18.8673 21.7247 18.9836 21.7767 19.092C21.8287 19.2005 21.9049 19.299 22.001 19.3821C22.097 19.4651 22.2111 19.5309 22.3366 19.5758C22.4621 19.6208 22.5966 19.6439 22.7325 19.6439C22.8683 19.6439 23.0029 19.6208 23.1284 19.5758C23.2539 19.5309 23.3679 19.4651 23.464 19.3821L30.6965 13.1321C30.7927 13.0492 30.869 12.9507 30.9211 12.8422C30.9732 12.7337 31 12.6174 31 12.5C31 12.3826 30.9732 12.2663 30.9211 12.1578C30.869 12.0493 30.7927 11.9508 30.6965 11.8679L23.464 5.61795C23.368 5.5348 23.254 5.46883 23.1285 5.42382C23.0029 5.37881 22.8684 5.35564 22.7325 5.35564C22.5966 5.35564 22.462 5.37881 22.3365 5.42382C22.211 5.46883 22.0969 5.5348 22.001 5.61795Z" fill="#2B2B2B"/>
</svg>
