<svg width="40" height="26" viewBox="0 0 40 26" fill="none" xmlns="http://www.w3.org/2000/svg">
<path d="M20 23C29.3891 23 37 13 37 13C37 13 29.3891 3 20 3C10.6109 3 3 13 3 13C3 13 10.6109 23 20 23Z" stroke="#2B2B2B" stroke-width="4.16667" stroke-linejoin="round"/>
<path d="M20.3532 17.1664C21.5038 17.1664 22.6073 16.7274 23.4208 15.946C24.2344 15.1646 24.6915 14.1048 24.6915 12.9997C24.6915 11.8946 24.2344 10.8348 23.4208 10.0534C22.6073 9.272 21.5038 8.83301 20.3532 8.83301C19.2026 8.83301 18.0991 9.272 17.2856 10.0534C16.472 10.8348 16.0149 11.8946 16.0149 12.9997C16.0149 14.1048 16.472 15.1646 17.2856 15.946C18.0991 16.7274 19.2026 17.1664 20.3532 17.1664Z" stroke="#2B2B2B" stroke-width="4.16667" stroke-linejoin="round"/>
</svg>
